/* XPM */
static char *arrow3[] = {
/* columns rows colors chars-per-pixel */
"20 20 2 1 ",
"  c black",
". c none",
/* pixels */
"                    ",
"                 .. ",
"              ..... ",
"            ......  ",
"          ........  ",
"       ...........  ",
"     ............   ",
"   ..............   ",
" ...............    ",
"      ..........    ",
"          .....     ",
"          .....     ",
"          .....     ",
"          ....      ",
"           ...      ",
"           ..       ",
"           ..       ",
"           .        ",
"           .        ",
"                    "
};
